<svg xmlns="http://www.w3.org/2000/svg" xmlns:xlink="http://www.w3.org/1999/xlink" version="1.1" x="0px" y="0px" viewBox="0 0 32 40" style="enable-background:new 0 0 32 32;" xml:space="preserve"><style type="text/css">
	.st0{fill:none;stroke:#231F20;stroke-width:2;stroke-linecap:round;stroke-linejoin:round;stroke-miterlimit:10;}
</style><g><path d="M28.9,7.3l-7-7C21.7,0.1,21.4,0,21.2,0H3.8c-0.6,0-1,0.4-1,1v30c0,0.5,0.4,1,1,1h24.3c0.5,0,1-0.5,1-1V8   C29.2,7.7,29.1,7.5,28.9,7.3z M9.7,9.7C9.3,9.1,9,8.4,9,7.5C9,5.6,10.5,4,12.5,4C14.4,4,16,5.6,16,7.5c0,0.8-0.3,1.6-0.8,2.2   c1.9,1,3.3,3,3.3,5.3c0,0.6-0.5,1-1,1h-10c-0.6,0-1-0.4-1-1C6.5,12.7,7.8,10.7,9.7,9.7z M24.5,26.6H7.5c-0.6,0-1-0.4-1-1   c0-0.6,0.4-1,1-1h17.1c0.6,0,1,0.4,1,1C25.5,26.2,25.1,26.6,24.5,26.6z M24.5,21H7.5c-0.6,0-1-0.5-1-1s0.4-1,1-1h17.1   c0.6,0,1,0.5,1,1S25.1,21,24.5,21z"/><circle cx="12.5" cy="7.5" r="1.5"/><path d="M12.5,11c-1.9,0-3.4,1.3-3.9,3h7.7C15.9,12.3,14.3,11,12.5,11z"/></g><text x="0" y="47" fill="#000000" font-size="5px" font-weight="bold" font-family="'Helvetica Neue', Helvetica, Arial-Unicode, Arial, Sans-serif">Created by Creative Stall</text><text x="0" y="52" fill="#000000" font-size="5px" font-weight="bold" font-family="'Helvetica Neue', Helvetica, Arial-Unicode, Arial, Sans-serif">from the Noun Project</text></svg>